<svg width="16" height="16" viewBox="0 0 16 16" fill="none" xmlns="http://www.w3.org/2000/svg">
<path fill-rule="evenodd" clip-rule="evenodd" d="M10.8647 0.89284C12.0363 -0.278732 13.9357 -0.278734 15.1073 0.892839C16.2789 2.06441 16.2789 3.96391 15.1073 5.13548L12.7171 7.52574L14.7556 12.0106C15.1244 12.8219 14.9512 13.7769 14.321 14.4071C13.449 15.2791 12.022 15.2346 11.2061 14.3098L8.73431 11.5085L8.12939 12.1134L8.35267 13.3787C8.47863 14.0925 8.24841 14.8228 7.73588 15.3354C6.71405 16.3572 5.004 16.1467 4.26051 14.9075L3.07256 12.9276L1.09265 11.7397C-0.1465 10.9962 -0.357016 9.28611 0.664811 8.26428C1.17734 7.75175 1.9077 7.52153 2.62149 7.64749L3.88675 7.87077L4.49167 7.26585L1.69038 4.79413C0.765639 3.97818 0.721089 2.5512 1.59313 1.67917C2.22332 1.04898 3.17831 0.875805 3.98965 1.24459L8.4744 3.28312L10.8647 0.89284ZM13.6931 2.30705C13.3026 1.91653 12.6694 1.91653 12.2789 2.30705L9.39859 5.18736C9.10384 5.48211 8.65716 5.56311 8.27768 5.39062L3.16204 3.06533C3.10967 3.04152 3.04802 3.0527 3.00734 3.09338C2.95105 3.14967 2.95393 3.24178 3.01362 3.29445L6.61307 6.47044C6.82007 6.65308 6.94235 6.91316 6.95097 7.18908C6.95958 7.46499 6.85375 7.73219 6.65856 7.92739L4.9328 9.65315C4.70206 9.88388 4.37326 9.98753 4.05191 9.93082L2.27392 9.61706C2.20282 9.60451 2.13007 9.62745 2.07902 9.6785C1.97724 9.78028 1.99821 9.95061 2.12164 10.0247L4.31593 11.3412C4.45668 11.4257 4.57447 11.5435 4.65892 11.6842L5.9755 13.8785C6.04955 14.002 6.21989 14.0229 6.32167 13.9211C6.37272 13.8701 6.39565 13.7973 6.3831 13.7262L6.06934 11.9483C6.01263 11.6269 6.11628 11.2981 6.34702 11.0674L8.07278 9.3416C8.26797 9.1464 8.53518 9.04058 8.81109 9.04919C9.087 9.05781 9.34708 9.18009 9.52972 9.38708L12.7058 12.9866C12.7584 13.0463 12.8505 13.0492 12.9068 12.9929C12.9475 12.9522 12.9587 12.8905 12.9349 12.8382L10.6096 7.72246C10.4371 7.34298 10.5181 6.8963 10.8128 6.60155L13.6931 3.72127C14.0836 3.33074 14.0836 2.69758 13.6931 2.30705Z" fill="#C15DF3"/>
</svg>
